<mxfile host="www.draw.io" modified="2019-10-16T10:23:20.519Z" agent="Mozilla/5.0 (X11; Linux x86_64) AppleWebKit/537.36 (KHTML, like Gecko) Chrome/73.0.3683.75 Safari/537.36" etag="zmVftj5nFr2NOPKN2n5u" version="12.1.1" type="github" pages="1">
  <diagram id="EdAOTdUpAiUYNW-F2-T8" name="Page-1">
    <mxGraphModel dx="496" dy="267" grid="1" gridSize="10" guides="1" tooltips="1" connect="1" arrows="1" fold="1" page="1" pageScale="1" pageWidth="827" pageHeight="1169" math="0" shadow="0">
      <root>
        <mxCell id="0"/>
        <mxCell id="1" parent="0"/>
        <mxCell id="PrVs4WJmUe6VJW8ANghc-1" style="edgeStyle=orthogonalEdgeStyle;rounded=0;orthogonalLoop=1;jettySize=auto;html=1;exitX=0.25;exitY=1;exitDx=0;exitDy=0;entryX=0.25;entryY=0;entryDx=0;entryDy=0;fontStyle=1" edge="1" parent="1" source="PrVs4WJmUe6VJW8ANghc-2">
          <mxGeometry relative="1" as="geometry">
            <mxPoint x="120" y="250" as="targetPoint"/>
          </mxGeometry>
        </mxCell>
        <mxCell id="PrVs4WJmUe6VJW8ANghc-2" value="Istruction&lt;br&gt;Cache" style="rounded=0;whiteSpace=wrap;html=1;fontStyle=1;strokeWidth=2;" vertex="1" parent="1">
          <mxGeometry x="90" y="50" width="120" height="120" as="geometry"/>
        </mxCell>
        <mxCell id="PrVs4WJmUe6VJW8ANghc-3" style="edgeStyle=orthogonalEdgeStyle;rounded=0;orthogonalLoop=1;jettySize=auto;html=1;exitX=0.75;exitY=0;exitDx=0;exitDy=0;entryX=0.75;entryY=1;entryDx=0;entryDy=0;fontStyle=1" edge="1" parent="1" target="PrVs4WJmUe6VJW8ANghc-2">
          <mxGeometry relative="1" as="geometry">
            <mxPoint x="180" y="250" as="sourcePoint"/>
          </mxGeometry>
        </mxCell>
        <mxCell id="PrVs4WJmUe6VJW8ANghc-4" style="edgeStyle=orthogonalEdgeStyle;rounded=0;orthogonalLoop=1;jettySize=auto;html=1;exitX=0.995;exitY=0.005;exitDx=0;exitDy=0;entryX=0.75;entryY=1;entryDx=0;entryDy=0;exitPerimeter=0;" edge="1" parent="1">
          <mxGeometry relative="1" as="geometry">
            <mxPoint x="620" y="250" as="sourcePoint"/>
            <mxPoint x="590" y="170" as="targetPoint"/>
            <Array as="points">
              <mxPoint x="620" y="210"/>
              <mxPoint x="590" y="210"/>
            </Array>
          </mxGeometry>
        </mxCell>
        <mxCell id="PrVs4WJmUe6VJW8ANghc-5" style="edgeStyle=orthogonalEdgeStyle;rounded=0;orthogonalLoop=1;jettySize=auto;html=1;exitX=0.25;exitY=1;exitDx=0;exitDy=0;entryX=0.5;entryY=0;entryDx=0;entryDy=0;" edge="1" parent="1" source="PrVs4WJmUe6VJW8ANghc-6">
          <mxGeometry relative="1" as="geometry">
            <mxPoint x="500" y="250" as="targetPoint"/>
          </mxGeometry>
        </mxCell>
        <mxCell id="PrVs4WJmUe6VJW8ANghc-6" value="Data&lt;br&gt;Cache" style="rounded=0;whiteSpace=wrap;html=1;fontStyle=1;strokeWidth=2;" vertex="1" parent="1">
          <mxGeometry x="501" y="50" width="120" height="120" as="geometry"/>
        </mxCell>
        <mxCell id="PrVs4WJmUe6VJW8ANghc-7" style="edgeStyle=orthogonalEdgeStyle;rounded=0;orthogonalLoop=1;jettySize=auto;html=1;exitX=0.25;exitY=1;exitDx=0;exitDy=0;entryX=0.25;entryY=0;entryDx=0;entryDy=0;fontStyle=1" edge="1" parent="1" source="PrVs4WJmUe6VJW8ANghc-8" target="PrVs4WJmUe6VJW8ANghc-11">
          <mxGeometry relative="1" as="geometry"/>
        </mxCell>
        <mxCell id="PrVs4WJmUe6VJW8ANghc-8" value="Fetch1" style="rounded=0;whiteSpace=wrap;html=1;fontStyle=1;strokeWidth=2;" vertex="1" parent="1">
          <mxGeometry x="90" y="250" width="120" height="60" as="geometry"/>
        </mxCell>
        <mxCell id="PrVs4WJmUe6VJW8ANghc-9" style="edgeStyle=orthogonalEdgeStyle;rounded=0;orthogonalLoop=1;jettySize=auto;html=1;exitX=0.75;exitY=0;exitDx=0;exitDy=0;fontStyle=1;entryX=0.75;entryY=1;entryDx=0;entryDy=0;" edge="1" parent="1" source="PrVs4WJmUe6VJW8ANghc-11" target="PrVs4WJmUe6VJW8ANghc-8">
          <mxGeometry relative="1" as="geometry">
            <mxPoint x="100" y="410" as="targetPoint"/>
          </mxGeometry>
        </mxCell>
        <mxCell id="PrVs4WJmUe6VJW8ANghc-10" style="edgeStyle=orthogonalEdgeStyle;rounded=0;orthogonalLoop=1;jettySize=auto;html=1;exitX=0.5;exitY=1;exitDx=0;exitDy=0;entryX=0.5;entryY=0;entryDx=0;entryDy=0;fontStyle=1" edge="1" parent="1" source="PrVs4WJmUe6VJW8ANghc-11" target="PrVs4WJmUe6VJW8ANghc-13">
          <mxGeometry relative="1" as="geometry"/>
        </mxCell>
        <mxCell id="PrVs4WJmUe6VJW8ANghc-11" value="Fetch2" style="rounded=0;whiteSpace=wrap;html=1;fontStyle=1;strokeWidth=2;" vertex="1" parent="1">
          <mxGeometry x="90" y="380" width="120" height="60" as="geometry"/>
        </mxCell>
        <mxCell id="PrVs4WJmUe6VJW8ANghc-12" style="edgeStyle=orthogonalEdgeStyle;rounded=0;orthogonalLoop=1;jettySize=auto;html=1;exitX=1;exitY=0.5;exitDx=0;exitDy=0;entryX=0;entryY=0.25;entryDx=0;entryDy=0;" edge="1" parent="1" source="PrVs4WJmUe6VJW8ANghc-13" target="PrVs4WJmUe6VJW8ANghc-15">
          <mxGeometry relative="1" as="geometry">
            <mxPoint x="280" y="358" as="targetPoint"/>
            <Array as="points">
              <mxPoint x="240" y="540"/>
              <mxPoint x="240" y="373"/>
            </Array>
          </mxGeometry>
        </mxCell>
        <mxCell id="PrVs4WJmUe6VJW8ANghc-13" value="&lt;span&gt;Decode&lt;/span&gt;" style="rounded=0;whiteSpace=wrap;html=1;fontStyle=1;strokeWidth=2;" vertex="1" parent="1">
          <mxGeometry x="90" y="509.5" width="120" height="60" as="geometry"/>
        </mxCell>
        <mxCell id="PrVs4WJmUe6VJW8ANghc-14" style="edgeStyle=orthogonalEdgeStyle;rounded=0;orthogonalLoop=1;jettySize=auto;html=1;entryX=0;entryY=0.5;entryDx=0;entryDy=0;exitX=0;exitY=0.75;exitDx=0;exitDy=0;" edge="1" parent="1" source="PrVs4WJmUe6VJW8ANghc-15" target="PrVs4WJmUe6VJW8ANghc-8">
          <mxGeometry relative="1" as="geometry">
            <Array as="points">
              <mxPoint x="50" y="618"/>
              <mxPoint x="50" y="280"/>
            </Array>
            <mxPoint x="280" y="573" as="sourcePoint"/>
          </mxGeometry>
        </mxCell>
        <mxCell id="PrVs4WJmUe6VJW8ANghc-15" value="&amp;nbsp; &amp;nbsp; &amp;nbsp; &amp;nbsp; &amp;nbsp; &lt;br&gt;&amp;nbsp; &amp;nbsp; &amp;nbsp; &amp;nbsp; &amp;nbsp; &amp;nbsp; &amp;nbsp; &amp;nbsp; &amp;nbsp; &lt;b&gt;Execute&lt;/b&gt;" style="rounded=0;whiteSpace=wrap;html=1;verticalAlign=top;labelPosition=center;verticalLabelPosition=middle;align=left;strokeWidth=2;" vertex="1" parent="1">
          <mxGeometry x="260" y="250" width="460" height="490" as="geometry"/>
        </mxCell>
        <mxCell id="PrVs4WJmUe6VJW8ANghc-16" value="C&lt;br&gt;o&lt;br&gt;m&lt;br&gt;m&lt;br&gt;i&lt;br&gt;t" style="rounded=0;whiteSpace=wrap;html=1;align=center;strokeWidth=1;" vertex="1" parent="1">
          <mxGeometry x="660" y="370" width="20" height="267" as="geometry"/>
        </mxCell>
        <mxCell id="PrVs4WJmUe6VJW8ANghc-17" value="Scoreboard" style="rounded=0;whiteSpace=wrap;html=1;strokeWidth=1;" vertex="1" parent="1">
          <mxGeometry x="341" y="660" width="270" height="30" as="geometry"/>
        </mxCell>
        <mxCell id="PrVs4WJmUe6VJW8ANghc-18" value="Int&amp;nbsp;" style="rounded=0;whiteSpace=wrap;html=1;align=right;labelPosition=left;verticalLabelPosition=middle;verticalAlign=middle;strokeWidth=2;" vertex="1" parent="1">
          <mxGeometry x="520" y="446.5588235294117" width="90" height="30" as="geometry"/>
        </mxCell>
        <mxCell id="PrVs4WJmUe6VJW8ANghc-19" value="" style="endArrow=none;html=1;exitX=0.338;exitY=0.997;exitDx=0;exitDy=0;exitPerimeter=0;entryX=0.342;entryY=0.003;entryDx=0;entryDy=0;entryPerimeter=0;strokeWidth=2;" edge="1" parent="1" source="PrVs4WJmUe6VJW8ANghc-18" target="PrVs4WJmUe6VJW8ANghc-18">
          <mxGeometry width="50" height="50" relative="1" as="geometry">
            <mxPoint x="-10" y="549.5588235294117" as="sourcePoint"/>
            <mxPoint x="391" y="369.5588235294117" as="targetPoint"/>
          </mxGeometry>
        </mxCell>
        <mxCell id="PrVs4WJmUe6VJW8ANghc-20" value="" style="endArrow=none;html=1;exitX=0.668;exitY=1.01;exitDx=0;exitDy=0;exitPerimeter=0;entryX=0.672;entryY=-0.003;entryDx=0;entryDy=0;entryPerimeter=0;strokeWidth=2;" edge="1" parent="1" source="PrVs4WJmUe6VJW8ANghc-18" target="PrVs4WJmUe6VJW8ANghc-18">
          <mxGeometry width="50" height="50" relative="1" as="geometry">
            <mxPoint x="429.79999999999995" y="429.9388235294118" as="sourcePoint"/>
            <mxPoint x="430" y="369.5588235294117" as="targetPoint"/>
          </mxGeometry>
        </mxCell>
        <mxCell id="PrVs4WJmUe6VJW8ANghc-21" value="Mul" style="rounded=0;whiteSpace=wrap;html=1;align=right;labelPosition=left;verticalLabelPosition=middle;verticalAlign=middle;strokeWidth=2;" vertex="1" parent="1">
          <mxGeometry x="520" y="485.5588235294117" width="90" height="30" as="geometry"/>
        </mxCell>
        <mxCell id="PrVs4WJmUe6VJW8ANghc-22" value="" style="endArrow=none;html=1;exitX=0.338;exitY=0.997;exitDx=0;exitDy=0;exitPerimeter=0;entryX=0.342;entryY=0.003;entryDx=0;entryDy=0;entryPerimeter=0;strokeWidth=2;" edge="1" parent="1" source="PrVs4WJmUe6VJW8ANghc-21" target="PrVs4WJmUe6VJW8ANghc-21">
          <mxGeometry width="50" height="50" relative="1" as="geometry">
            <mxPoint x="-10" y="589.5588235294117" as="sourcePoint"/>
            <mxPoint x="391" y="409.5588235294117" as="targetPoint"/>
          </mxGeometry>
        </mxCell>
        <mxCell id="PrVs4WJmUe6VJW8ANghc-23" value="" style="endArrow=none;html=1;exitX=0.668;exitY=1.01;exitDx=0;exitDy=0;exitPerimeter=0;entryX=0.672;entryY=-0.003;entryDx=0;entryDy=0;entryPerimeter=0;strokeWidth=2;" edge="1" parent="1" source="PrVs4WJmUe6VJW8ANghc-21" target="PrVs4WJmUe6VJW8ANghc-21">
          <mxGeometry width="50" height="50" relative="1" as="geometry">
            <mxPoint x="429.79999999999995" y="469.9388235294118" as="sourcePoint"/>
            <mxPoint x="430" y="409.5588235294117" as="targetPoint"/>
          </mxGeometry>
        </mxCell>
        <mxCell id="PrVs4WJmUe6VJW8ANghc-24" value="Div" style="rounded=0;whiteSpace=wrap;html=1;align=right;labelPosition=left;verticalLabelPosition=middle;verticalAlign=middle;strokeWidth=2;" vertex="1" parent="1">
          <mxGeometry x="340" y="607.0588235294117" width="90" height="30" as="geometry"/>
        </mxCell>
        <mxCell id="PrVs4WJmUe6VJW8ANghc-25" value="" style="endArrow=none;html=1;exitX=0.338;exitY=0.997;exitDx=0;exitDy=0;exitPerimeter=0;entryX=0.342;entryY=0.003;entryDx=0;entryDy=0;entryPerimeter=0;strokeWidth=2;" edge="1" parent="1" source="PrVs4WJmUe6VJW8ANghc-24" target="PrVs4WJmUe6VJW8ANghc-24">
          <mxGeometry width="50" height="50" relative="1" as="geometry">
            <mxPoint x="-10" y="629.5588235294117" as="sourcePoint"/>
            <mxPoint x="391" y="449.5588235294117" as="targetPoint"/>
          </mxGeometry>
        </mxCell>
        <mxCell id="PrVs4WJmUe6VJW8ANghc-26" value="" style="endArrow=none;html=1;exitX=0.668;exitY=1.01;exitDx=0;exitDy=0;exitPerimeter=0;entryX=0.672;entryY=-0.003;entryDx=0;entryDy=0;entryPerimeter=0;strokeWidth=2;" edge="1" parent="1" source="PrVs4WJmUe6VJW8ANghc-24" target="PrVs4WJmUe6VJW8ANghc-24">
          <mxGeometry width="50" height="50" relative="1" as="geometry">
            <mxPoint x="429.79999999999995" y="509.9388235294118" as="sourcePoint"/>
            <mxPoint x="430" y="449.5588235294117" as="targetPoint"/>
          </mxGeometry>
        </mxCell>
        <mxCell id="PrVs4WJmUe6VJW8ANghc-27" value="" style="rounded=0;whiteSpace=wrap;html=1;align=right;labelPosition=left;verticalLabelPosition=middle;verticalAlign=middle;strokeWidth=2;" vertex="1" parent="1">
          <mxGeometry x="430" y="607.0588235294117" width="90" height="30" as="geometry"/>
        </mxCell>
        <mxCell id="PrVs4WJmUe6VJW8ANghc-28" value="" style="endArrow=none;html=1;exitX=0.338;exitY=0.997;exitDx=0;exitDy=0;exitPerimeter=0;entryX=0.342;entryY=0.003;entryDx=0;entryDy=0;entryPerimeter=0;strokeWidth=2;" edge="1" parent="1" source="PrVs4WJmUe6VJW8ANghc-27" target="PrVs4WJmUe6VJW8ANghc-27">
          <mxGeometry width="50" height="50" relative="1" as="geometry">
            <mxPoint x="-315" y="669.5588235294117" as="sourcePoint"/>
            <mxPoint x="86" y="489.5588235294117" as="targetPoint"/>
          </mxGeometry>
        </mxCell>
        <mxCell id="PrVs4WJmUe6VJW8ANghc-29" value="" style="endArrow=none;html=1;exitX=0.668;exitY=1.01;exitDx=0;exitDy=0;exitPerimeter=0;entryX=0.672;entryY=-0.003;entryDx=0;entryDy=0;entryPerimeter=0;strokeWidth=2;" edge="1" parent="1" source="PrVs4WJmUe6VJW8ANghc-27" target="PrVs4WJmUe6VJW8ANghc-27">
          <mxGeometry width="50" height="50" relative="1" as="geometry">
            <mxPoint x="124.79999999999995" y="549.9388235294118" as="sourcePoint"/>
            <mxPoint x="125" y="489.5588235294117" as="targetPoint"/>
          </mxGeometry>
        </mxCell>
        <mxCell id="PrVs4WJmUe6VJW8ANghc-30" value="" style="rounded=0;whiteSpace=wrap;html=1;align=right;labelPosition=left;verticalLabelPosition=middle;verticalAlign=middle;strokeWidth=2;" vertex="1" parent="1">
          <mxGeometry x="520" y="607.0588235294117" width="90" height="30" as="geometry"/>
        </mxCell>
        <mxCell id="PrVs4WJmUe6VJW8ANghc-31" value="" style="endArrow=none;html=1;exitX=0.338;exitY=0.997;exitDx=0;exitDy=0;exitPerimeter=0;entryX=0.342;entryY=0.003;entryDx=0;entryDy=0;entryPerimeter=0;strokeWidth=2;" edge="1" parent="1" source="PrVs4WJmUe6VJW8ANghc-30" target="PrVs4WJmUe6VJW8ANghc-30">
          <mxGeometry width="50" height="50" relative="1" as="geometry">
            <mxPoint x="-305" y="679.5588235294117" as="sourcePoint"/>
            <mxPoint x="96" y="499.5588235294117" as="targetPoint"/>
          </mxGeometry>
        </mxCell>
        <mxCell id="PrVs4WJmUe6VJW8ANghc-32" value="" style="endArrow=none;html=1;exitX=0.668;exitY=1.01;exitDx=0;exitDy=0;exitPerimeter=0;entryX=0.672;entryY=-0.003;entryDx=0;entryDy=0;entryPerimeter=0;strokeWidth=2;" edge="1" parent="1" source="PrVs4WJmUe6VJW8ANghc-30" target="PrVs4WJmUe6VJW8ANghc-30">
          <mxGeometry width="50" height="50" relative="1" as="geometry">
            <mxPoint x="134.79999999999995" y="559.9388235294118" as="sourcePoint"/>
            <mxPoint x="135" y="499.5588235294117" as="targetPoint"/>
          </mxGeometry>
        </mxCell>
        <mxCell id="PrVs4WJmUe6VJW8ANghc-33" value="Float" style="rounded=0;whiteSpace=wrap;html=1;align=right;labelPosition=left;verticalLabelPosition=middle;verticalAlign=middle;strokeWidth=2;" vertex="1" parent="1">
          <mxGeometry x="430" y="565.5588235294117" width="90" height="30" as="geometry"/>
        </mxCell>
        <mxCell id="PrVs4WJmUe6VJW8ANghc-34" value="" style="endArrow=none;html=1;exitX=0.338;exitY=0.997;exitDx=0;exitDy=0;exitPerimeter=0;entryX=0.342;entryY=0.003;entryDx=0;entryDy=0;entryPerimeter=0;strokeWidth=2;" edge="1" parent="1" source="PrVs4WJmUe6VJW8ANghc-33" target="PrVs4WJmUe6VJW8ANghc-33">
          <mxGeometry width="50" height="50" relative="1" as="geometry">
            <mxPoint x="-295" y="689.5588235294117" as="sourcePoint"/>
            <mxPoint x="106" y="509.5588235294117" as="targetPoint"/>
          </mxGeometry>
        </mxCell>
        <mxCell id="PrVs4WJmUe6VJW8ANghc-35" value="" style="endArrow=none;html=1;exitX=0.668;exitY=1.01;exitDx=0;exitDy=0;exitPerimeter=0;entryX=0.672;entryY=-0.003;entryDx=0;entryDy=0;entryPerimeter=0;strokeWidth=2;" edge="1" parent="1" source="PrVs4WJmUe6VJW8ANghc-33" target="PrVs4WJmUe6VJW8ANghc-33">
          <mxGeometry width="50" height="50" relative="1" as="geometry">
            <mxPoint x="144.79999999999995" y="569.9388235294118" as="sourcePoint"/>
            <mxPoint x="145" y="509.5588235294117" as="targetPoint"/>
          </mxGeometry>
        </mxCell>
        <mxCell id="PrVs4WJmUe6VJW8ANghc-36" value="" style="rounded=0;whiteSpace=wrap;html=1;align=right;labelPosition=left;verticalLabelPosition=middle;verticalAlign=middle;strokeWidth=2;" vertex="1" parent="1">
          <mxGeometry x="520" y="565.5588235294117" width="90" height="30" as="geometry"/>
        </mxCell>
        <mxCell id="PrVs4WJmUe6VJW8ANghc-37" value="" style="endArrow=none;html=1;exitX=0.338;exitY=0.997;exitDx=0;exitDy=0;exitPerimeter=0;entryX=0.342;entryY=0.003;entryDx=0;entryDy=0;entryPerimeter=0;strokeWidth=2;" edge="1" parent="1" source="PrVs4WJmUe6VJW8ANghc-36" target="PrVs4WJmUe6VJW8ANghc-36">
          <mxGeometry width="50" height="50" relative="1" as="geometry">
            <mxPoint x="-285" y="699.5588235294117" as="sourcePoint"/>
            <mxPoint x="116" y="519.5588235294117" as="targetPoint"/>
          </mxGeometry>
        </mxCell>
        <mxCell id="PrVs4WJmUe6VJW8ANghc-38" value="" style="endArrow=none;html=1;exitX=0.668;exitY=1.01;exitDx=0;exitDy=0;exitPerimeter=0;entryX=0.672;entryY=-0.003;entryDx=0;entryDy=0;entryPerimeter=0;strokeWidth=2;" edge="1" parent="1" source="PrVs4WJmUe6VJW8ANghc-36" target="PrVs4WJmUe6VJW8ANghc-36">
          <mxGeometry width="50" height="50" relative="1" as="geometry">
            <mxPoint x="154.79999999999995" y="579.9388235294118" as="sourcePoint"/>
            <mxPoint x="155" y="519.5588235294117" as="targetPoint"/>
          </mxGeometry>
        </mxCell>
        <mxCell id="PrVs4WJmUe6VJW8ANghc-39" value="Mem" style="rounded=0;whiteSpace=wrap;html=1;align=right;labelPosition=left;verticalLabelPosition=middle;verticalAlign=middle;strokeWidth=2;" vertex="1" parent="1">
          <mxGeometry x="520" y="524.5588235294117" width="90" height="30" as="geometry"/>
        </mxCell>
        <mxCell id="PrVs4WJmUe6VJW8ANghc-40" value="" style="endArrow=none;html=1;exitX=0.338;exitY=0.997;exitDx=0;exitDy=0;exitPerimeter=0;entryX=0.342;entryY=0.003;entryDx=0;entryDy=0;entryPerimeter=0;strokeWidth=2;" edge="1" parent="1" source="PrVs4WJmUe6VJW8ANghc-39" target="PrVs4WJmUe6VJW8ANghc-39">
          <mxGeometry width="50" height="50" relative="1" as="geometry">
            <mxPoint x="-10" y="707.5588235294117" as="sourcePoint"/>
            <mxPoint x="391" y="527.5588235294117" as="targetPoint"/>
          </mxGeometry>
        </mxCell>
        <mxCell id="PrVs4WJmUe6VJW8ANghc-41" value="" style="endArrow=none;html=1;exitX=0.668;exitY=1.01;exitDx=0;exitDy=0;exitPerimeter=0;entryX=0.672;entryY=-0.003;entryDx=0;entryDy=0;entryPerimeter=0;strokeWidth=2;" edge="1" parent="1" source="PrVs4WJmUe6VJW8ANghc-39" target="PrVs4WJmUe6VJW8ANghc-39">
          <mxGeometry width="50" height="50" relative="1" as="geometry">
            <mxPoint x="429.79999999999995" y="587.9388235294118" as="sourcePoint"/>
            <mxPoint x="430" y="527.5588235294117" as="targetPoint"/>
          </mxGeometry>
        </mxCell>
        <mxCell id="PrVs4WJmUe6VJW8ANghc-42" value="Misc" style="rounded=0;whiteSpace=wrap;html=1;align=right;labelPosition=left;verticalLabelPosition=middle;verticalAlign=middle;strokeWidth=2;" vertex="1" parent="1">
          <mxGeometry x="580" y="370.0588235294117" width="30" height="30" as="geometry"/>
        </mxCell>
        <mxCell id="PrVs4WJmUe6VJW8ANghc-43" value="" style="rounded=0;whiteSpace=wrap;html=1;align=left;verticalAlign=top;labelPosition=right;verticalLabelPosition=middle;" vertex="1" parent="1">
          <mxGeometry x="620" y="250" width="30" height="60" as="geometry"/>
        </mxCell>
        <mxCell id="PrVs4WJmUe6VJW8ANghc-44" value="" style="endArrow=none;html=1;entryX=0;entryY=0.5;entryDx=0;entryDy=0;exitX=1;exitY=0.5;exitDx=0;exitDy=0;" edge="1" parent="1" source="PrVs4WJmUe6VJW8ANghc-43" target="PrVs4WJmUe6VJW8ANghc-43">
          <mxGeometry width="50" height="50" relative="1" as="geometry">
            <mxPoint x="355" y="490" as="sourcePoint"/>
            <mxPoint x="405" y="440" as="targetPoint"/>
          </mxGeometry>
        </mxCell>
        <mxCell id="PrVs4WJmUe6VJW8ANghc-45" value="" style="endArrow=none;html=1;entryX=0;entryY=0.75;entryDx=0;entryDy=0;exitX=1;exitY=0.75;exitDx=0;exitDy=0;" edge="1" parent="1" source="PrVs4WJmUe6VJW8ANghc-43" target="PrVs4WJmUe6VJW8ANghc-43">
          <mxGeometry width="50" height="50" relative="1" as="geometry">
            <mxPoint x="355" y="490" as="sourcePoint"/>
            <mxPoint x="405" y="440" as="targetPoint"/>
          </mxGeometry>
        </mxCell>
        <mxCell id="PrVs4WJmUe6VJW8ANghc-46" value="Load&lt;br&gt;Req" style="rounded=0;whiteSpace=wrap;html=1;align=center;labelPosition=center;verticalLabelPosition=middle;verticalAlign=middle;" vertex="1" parent="1">
          <mxGeometry x="590" y="250" width="30" height="30" as="geometry"/>
        </mxCell>
        <mxCell id="PrVs4WJmUe6VJW8ANghc-47" value="Store&lt;br&gt;Buf" style="text;html=1;strokeColor=none;fillColor=none;align=center;verticalAlign=middle;whiteSpace=wrap;rounded=0;" vertex="1" parent="1">
          <mxGeometry x="620" y="250" width="30" height="30" as="geometry"/>
        </mxCell>
        <mxCell id="PrVs4WJmUe6VJW8ANghc-48" value="Input Buf" style="rounded=0;whiteSpace=wrap;html=1;align=center;labelPosition=center;verticalLabelPosition=bottom;verticalAlign=top;" vertex="1" parent="1">
          <mxGeometry x="300" y="370" width="40" height="80" as="geometry"/>
        </mxCell>
        <mxCell id="PrVs4WJmUe6VJW8ANghc-49" value="" style="endArrow=none;html=1;entryX=0.5;entryY=0;entryDx=0;entryDy=0;exitX=0.5;exitY=1;exitDx=0;exitDy=0;" edge="1" parent="1" source="PrVs4WJmUe6VJW8ANghc-48" target="PrVs4WJmUe6VJW8ANghc-48">
          <mxGeometry width="50" height="50" relative="1" as="geometry">
            <mxPoint x="-20" y="740" as="sourcePoint"/>
            <mxPoint x="30" y="690" as="targetPoint"/>
          </mxGeometry>
        </mxCell>
        <mxCell id="PrVs4WJmUe6VJW8ANghc-50" value="" style="endArrow=none;html=1;entryX=0.25;entryY=0;entryDx=0;entryDy=0;exitX=0.25;exitY=1;exitDx=0;exitDy=0;" edge="1" parent="1" source="PrVs4WJmUe6VJW8ANghc-48" target="PrVs4WJmUe6VJW8ANghc-48">
          <mxGeometry width="50" height="50" relative="1" as="geometry">
            <mxPoint x="-20" y="740" as="sourcePoint"/>
            <mxPoint x="30" y="690" as="targetPoint"/>
          </mxGeometry>
        </mxCell>
        <mxCell id="PrVs4WJmUe6VJW8ANghc-51" value="" style="shape=loopLimit;whiteSpace=wrap;html=1;align=left;rotation=180;size=14;" vertex="1" parent="1">
          <mxGeometry x="410" y="270" width="60" height="60" as="geometry"/>
        </mxCell>
        <mxCell id="PrVs4WJmUe6VJW8ANghc-52" value="Reg&lt;br&gt;File" style="text;html=1;strokeColor=none;fillColor=none;align=center;verticalAlign=middle;whiteSpace=wrap;rounded=0;" vertex="1" parent="1">
          <mxGeometry x="420" y="290" width="40" height="20" as="geometry"/>
        </mxCell>
        <mxCell id="PrVs4WJmUe6VJW8ANghc-53" value="" style="endArrow=none;html=1;strokeColor=#CC0000;strokeWidth=3;exitX=0;exitY=0.25;exitDx=0;exitDy=0;entryX=0;entryY=0.25;entryDx=0;entryDy=0;" edge="1" parent="1" source="PrVs4WJmUe6VJW8ANghc-48" target="PrVs4WJmUe6VJW8ANghc-15">
          <mxGeometry width="50" height="50" relative="1" as="geometry">
            <mxPoint x="39" y="750" as="sourcePoint"/>
            <mxPoint x="279" y="370" as="targetPoint"/>
            <Array as="points">
              <mxPoint x="289" y="387"/>
              <mxPoint x="289" y="373"/>
            </Array>
          </mxGeometry>
        </mxCell>
        <mxCell id="PrVs4WJmUe6VJW8ANghc-54" value="" style="endArrow=none;html=1;strokeColor=#CC0000;strokeWidth=3;entryX=0;entryY=0.25;entryDx=0;entryDy=0;exitX=0;exitY=0.25;exitDx=0;exitDy=0;" edge="1" parent="1" source="PrVs4WJmUe6VJW8ANghc-57" target="PrVs4WJmUe6VJW8ANghc-48">
          <mxGeometry width="50" height="50" relative="1" as="geometry">
            <mxPoint x="189" y="750" as="sourcePoint"/>
            <mxPoint x="239" y="700" as="targetPoint"/>
          </mxGeometry>
        </mxCell>
        <mxCell id="PrVs4WJmUe6VJW8ANghc-55" value="" style="endArrow=none;dashed=1;html=1;strokeColor=#CC0000;strokeWidth=1;exitX=0;exitY=0.75;exitDx=0;exitDy=0;" edge="1" parent="1" source="PrVs4WJmUe6VJW8ANghc-48">
          <mxGeometry width="50" height="50" relative="1" as="geometry">
            <mxPoint x="189" y="750" as="sourcePoint"/>
            <mxPoint x="289" y="370" as="targetPoint"/>
            <Array as="points">
              <mxPoint x="289" y="422"/>
            </Array>
          </mxGeometry>
        </mxCell>
        <mxCell id="PrVs4WJmUe6VJW8ANghc-56" value="" style="endArrow=none;dashed=1;html=1;strokeColor=#CC0000;strokeWidth=1;exitX=0;exitY=0.75;exitDx=0;exitDy=0;entryX=0;entryY=0.75;entryDx=0;entryDy=0;" edge="1" parent="1" source="PrVs4WJmUe6VJW8ANghc-57" target="PrVs4WJmUe6VJW8ANghc-48">
          <mxGeometry width="50" height="50" relative="1" as="geometry">
            <mxPoint x="169" y="750" as="sourcePoint"/>
            <mxPoint x="302" y="430" as="targetPoint"/>
          </mxGeometry>
        </mxCell>
        <mxCell id="PrVs4WJmUe6VJW8ANghc-57" value="Micro Op&lt;br&gt;Decode&lt;br&gt;/&lt;br&gt;Fetch&lt;br&gt;Operand" style="rounded=0;whiteSpace=wrap;html=1;" vertex="1" parent="1">
          <mxGeometry x="355" y="370" width="60" height="80" as="geometry"/>
        </mxCell>
        <mxCell id="PrVs4WJmUe6VJW8ANghc-58" value="" style="endArrow=classicThin;html=1;strokeColor=#FF9933;strokeWidth=2;exitX=0.75;exitY=0;exitDx=0;exitDy=0;entryX=0.75;entryY=0;entryDx=0;entryDy=0;endSize=1;endFill=1;" edge="1" parent="1" source="PrVs4WJmUe6VJW8ANghc-57" target="PrVs4WJmUe6VJW8ANghc-51">
          <mxGeometry width="50" height="50" relative="1" as="geometry">
            <mxPoint x="425" y="407.5" as="sourcePoint"/>
            <mxPoint x="475" y="357.5" as="targetPoint"/>
            <Array as="points">
              <mxPoint x="400" y="350"/>
              <mxPoint x="425" y="350"/>
            </Array>
          </mxGeometry>
        </mxCell>
        <mxCell id="PrVs4WJmUe6VJW8ANghc-59" value="" style="endArrow=classic;html=1;strokeColor=#FF9933;strokeWidth=2;endSize=1;entryX=0.25;entryY=0;entryDx=0;entryDy=0;exitX=1;exitY=0.5;exitDx=0;exitDy=0;" edge="1" parent="1" source="PrVs4WJmUe6VJW8ANghc-51" target="PrVs4WJmUe6VJW8ANghc-57">
          <mxGeometry width="50" height="50" relative="1" as="geometry">
            <mxPoint x="109" y="750" as="sourcePoint"/>
            <mxPoint x="159" y="700" as="targetPoint"/>
            <Array as="points">
              <mxPoint x="389" y="300"/>
              <mxPoint x="389" y="330"/>
              <mxPoint x="370" y="330"/>
            </Array>
          </mxGeometry>
        </mxCell>
        <mxCell id="PrVs4WJmUe6VJW8ANghc-60" value="" style="endArrow=none;html=1;strokeColor=#CC0000;strokeWidth=3;entryX=1;entryY=0.25;entryDx=0;entryDy=0;exitX=0;exitY=0.25;exitDx=0;exitDy=0;endSize=6;endFill=0;startArrow=none;startFill=0;startSize=1;" edge="1" parent="1" source="PrVs4WJmUe6VJW8ANghc-24" target="PrVs4WJmUe6VJW8ANghc-57">
          <mxGeometry width="50" height="50" relative="1" as="geometry">
            <mxPoint x="49" y="750" as="sourcePoint"/>
            <mxPoint x="99" y="700" as="targetPoint"/>
            <Array as="points">
              <mxPoint x="310" y="615"/>
              <mxPoint x="310" y="530"/>
              <mxPoint x="460" y="530"/>
              <mxPoint x="460" y="390"/>
            </Array>
          </mxGeometry>
        </mxCell>
        <mxCell id="PrVs4WJmUe6VJW8ANghc-61" value="Int&amp;nbsp;" style="rounded=0;whiteSpace=wrap;html=1;align=right;labelPosition=left;verticalLabelPosition=middle;verticalAlign=middle;strokeWidth=2;" vertex="1" parent="1">
          <mxGeometry x="520" y="407.5588235294117" width="90" height="30" as="geometry"/>
        </mxCell>
        <mxCell id="PrVs4WJmUe6VJW8ANghc-62" value="" style="endArrow=none;html=1;exitX=0.338;exitY=0.997;exitDx=0;exitDy=0;exitPerimeter=0;entryX=0.342;entryY=0.003;entryDx=0;entryDy=0;entryPerimeter=0;strokeWidth=2;" edge="1" parent="1" source="PrVs4WJmUe6VJW8ANghc-61" target="PrVs4WJmUe6VJW8ANghc-61">
          <mxGeometry width="50" height="50" relative="1" as="geometry">
            <mxPoint x="-10" y="509.5588235294117" as="sourcePoint"/>
            <mxPoint x="391" y="329.5588235294117" as="targetPoint"/>
          </mxGeometry>
        </mxCell>
        <mxCell id="PrVs4WJmUe6VJW8ANghc-63" value="" style="endArrow=none;html=1;exitX=0.668;exitY=1.01;exitDx=0;exitDy=0;exitPerimeter=0;entryX=0.672;entryY=-0.003;entryDx=0;entryDy=0;entryPerimeter=0;strokeWidth=2;" edge="1" parent="1" source="PrVs4WJmUe6VJW8ANghc-61" target="PrVs4WJmUe6VJW8ANghc-61">
          <mxGeometry width="50" height="50" relative="1" as="geometry">
            <mxPoint x="429.79999999999995" y="389.9388235294118" as="sourcePoint"/>
            <mxPoint x="430" y="329.5588235294117" as="targetPoint"/>
          </mxGeometry>
        </mxCell>
        <mxCell id="PrVs4WJmUe6VJW8ANghc-64" value="" style="endArrow=none;dashed=1;html=1;strokeColor=#CC0000;strokeWidth=1;entryX=1;entryY=0.75;entryDx=0;entryDy=0;exitX=0;exitY=0.25;exitDx=0;exitDy=0;" edge="1" parent="1" source="PrVs4WJmUe6VJW8ANghc-24" target="PrVs4WJmUe6VJW8ANghc-57">
          <mxGeometry width="50" height="50" relative="1" as="geometry">
            <mxPoint x="69" y="750" as="sourcePoint"/>
            <mxPoint x="119" y="700" as="targetPoint"/>
            <Array as="points">
              <mxPoint x="310" y="615"/>
              <mxPoint x="310" y="530"/>
              <mxPoint x="440" y="530"/>
              <mxPoint x="440" y="430"/>
            </Array>
          </mxGeometry>
        </mxCell>
        <mxCell id="PrVs4WJmUe6VJW8ANghc-65" value="" style="endArrow=classicThin;html=1;strokeColor=#999900;strokeWidth=2;endSize=1;startSize=1;endFill=1;entryX=0.25;entryY=0;entryDx=0;entryDy=0;exitX=0.5;exitY=0;exitDx=0;exitDy=0;" edge="1" parent="1" source="PrVs4WJmUe6VJW8ANghc-16" target="PrVs4WJmUe6VJW8ANghc-51">
          <mxGeometry width="50" height="50" relative="1" as="geometry">
            <mxPoint x="169" y="750" as="sourcePoint"/>
            <mxPoint x="219" y="700" as="targetPoint"/>
            <Array as="points">
              <mxPoint x="670" y="350"/>
              <mxPoint x="649" y="350"/>
              <mxPoint x="529" y="350"/>
              <mxPoint x="455" y="350"/>
            </Array>
          </mxGeometry>
        </mxCell>
        <mxCell id="PrVs4WJmUe6VJW8ANghc-66" value="" style="endArrow=classicThin;html=1;strokeColor=#4D9900;strokeWidth=3;endFill=1;startSize=4;endSize=1;entryX=0;entryY=0.5;entryDx=0;entryDy=0;exitX=1;exitY=0.25;exitDx=0;exitDy=0;" edge="1" parent="1" source="PrVs4WJmUe6VJW8ANghc-30" target="PrVs4WJmUe6VJW8ANghc-16">
          <mxGeometry width="50" height="50" relative="1" as="geometry">
            <mxPoint x="139" y="750" as="sourcePoint"/>
            <mxPoint x="689" y="436.75" as="targetPoint"/>
            <Array as="points">
              <mxPoint x="630" y="615"/>
              <mxPoint x="630" y="504"/>
            </Array>
          </mxGeometry>
        </mxCell>
        <mxCell id="PrVs4WJmUe6VJW8ANghc-67" value="" style="endArrow=none;html=1;strokeColor=#000000;strokeWidth=1;entryX=1;entryY=0.5;entryDx=0;entryDy=0;exitX=0;exitY=0.5;exitDx=0;exitDy=0;" edge="1" parent="1" source="PrVs4WJmUe6VJW8ANghc-48" target="PrVs4WJmUe6VJW8ANghc-48">
          <mxGeometry width="50" height="50" relative="1" as="geometry">
            <mxPoint x="39" y="750" as="sourcePoint"/>
            <mxPoint x="89" y="700" as="targetPoint"/>
          </mxGeometry>
        </mxCell>
        <mxCell id="PrVs4WJmUe6VJW8ANghc-68" value="" style="endArrow=classic;html=1;strokeColor=#009999;entryX=0;entryY=0.75;entryDx=0;entryDy=0;exitX=0.25;exitY=1;exitDx=0;exitDy=0;strokeWidth=2;startSize=3;endSize=1;" edge="1" parent="1" source="PrVs4WJmUe6VJW8ANghc-57" target="PrVs4WJmUe6VJW8ANghc-17">
          <mxGeometry width="50" height="50" relative="1" as="geometry">
            <mxPoint x="79" y="780" as="sourcePoint"/>
            <mxPoint x="129" y="730" as="targetPoint"/>
            <Array as="points">
              <mxPoint x="370" y="500"/>
              <mxPoint x="289" y="500"/>
              <mxPoint x="289" y="683"/>
            </Array>
          </mxGeometry>
        </mxCell>
        <mxCell id="PrVs4WJmUe6VJW8ANghc-69" value="" style="endArrow=classic;html=1;strokeColor=#009999;entryX=0.75;entryY=1;entryDx=0;entryDy=0;exitX=0;exitY=0.25;exitDx=0;exitDy=0;strokeWidth=2;startSize=3;endSize=1;" edge="1" parent="1" source="PrVs4WJmUe6VJW8ANghc-17" target="PrVs4WJmUe6VJW8ANghc-57">
          <mxGeometry width="50" height="50" relative="1" as="geometry">
            <mxPoint x="380" y="460" as="sourcePoint"/>
            <mxPoint x="351" y="692.5" as="targetPoint"/>
            <Array as="points">
              <mxPoint x="299" y="668"/>
              <mxPoint x="299" y="510"/>
              <mxPoint x="400" y="510"/>
            </Array>
          </mxGeometry>
        </mxCell>
        <mxCell id="PrVs4WJmUe6VJW8ANghc-70" value="" style="endArrow=classic;html=1;strokeColor=#009999;entryX=1;entryY=0.5;entryDx=0;entryDy=0;exitX=0.5;exitY=1;exitDx=0;exitDy=0;strokeWidth=2;startSize=3;endSize=1;" edge="1" parent="1" source="PrVs4WJmUe6VJW8ANghc-16" target="PrVs4WJmUe6VJW8ANghc-17">
          <mxGeometry width="50" height="50" relative="1" as="geometry">
            <mxPoint x="700" y="637" as="sourcePoint"/>
            <mxPoint x="351" y="692.5" as="targetPoint"/>
            <Array as="points">
              <mxPoint x="670" y="675"/>
            </Array>
          </mxGeometry>
        </mxCell>
        <mxCell id="PrVs4WJmUe6VJW8ANghc-71" value="" style="endArrow=classicThin;html=1;strokeColor=#4D9900;strokeWidth=3;endFill=1;startSize=4;endSize=1;exitX=1;exitY=0.5;exitDx=0;exitDy=0;entryX=0;entryY=0.5;entryDx=0;entryDy=0;" edge="1" parent="1" source="PrVs4WJmUe6VJW8ANghc-16" target="PrVs4WJmUe6VJW8ANghc-51">
          <mxGeometry width="50" height="50" relative="1" as="geometry">
            <mxPoint x="620" y="432.5588235294117" as="sourcePoint"/>
            <mxPoint x="670" y="513.5" as="targetPoint"/>
            <Array as="points">
              <mxPoint x="699" y="504"/>
              <mxPoint x="699" y="330"/>
              <mxPoint x="509" y="330"/>
              <mxPoint x="509" y="300"/>
            </Array>
          </mxGeometry>
        </mxCell>
      </root>
    </mxGraphModel>
  </diagram>
</mxfile>
